# xmcd CD database file
#
# Track frame offsets:
#	150
#	11412
#	23883
#	33631
#	45704
#	51350
#	58150
#	90532
#	99572
#	108821
#	118788
#	138513
#	156096
#
# Disc length: 2442 seconds
#
# Revision: 0
# Processed by: cddbd v1.5.2PL0 Copyright (c) Steve Scherf et al.
# Submitted via: CDex 1.70beta2
#
DISCID=aa09880d
DTITLE=Dan Tepfer and Lee Konitz - Duos With Lee
DYEAR=2009
DGENRE=Jazz
TTITLE0=Elande No. 1
TTITLE1=Elande No. 2
TTITLE2=Elande No. 3
TTITLE3=Elande No. 4
TTITLE4=Elande No. 5
TTITLE5=Elande No. 6
TTITLE6=Merka Tikva
TTITLE7=Elande No. 7
TTITLE8=Elande No. 8
TTITLE9=Elande No. 9
TTITLE10=Elande No. 10
TTITLE11=No Lee
TTITLE12=Trees
EXTD=YEAR: 2009
EXTT0=
EXTT1=
EXTT2=
EXTT3=
EXTT4=
EXTT5=
EXTT6=
EXTT7=
EXTT8=
EXTT9=
EXTT10=
EXTT11=
EXTT12=
PLAYORDER=
